Simulation
nRows=43
nColumns=15
endheader
time  TH_x TH_y TH_z SC_y  SC_z  SC_x  AC_y  AC_z  AC_x  GH_y  GH_z  GH_yy  EL_x  PS_y
5.35  0.000000  0.000000  0.000000  -19.337866443484884  6.408978962864662  0.003738962153639452  55.12991201786633  17.911243160065055  8.462525762136151  43.65090212752693  47.11990551234179  -50.081357190652504  39.5571360820628  120.000000
5.390225563909774  0.000000  0.000000  0.000000  -19.168186817714556  6.582740958767615  0.6635539980044662  55.300626047433006  17.421989939738673  8.36698272211984  44.78784691255866  47.97541208765268  -49.46388434543948  38.306542204003684  120.000000
5.430451127819548  0.000000  0.000000  0.000000  -19.012353712722124  6.74942433011126  1.3532847888565027  55.475523366256844  16.898012802031175  8.243305187176903  45.868295580905034  48.808964938808685  -48.86518432831343  37.0816505195197  120.000000
5.470676691729323  0.000000  0.000000  0.000000  -18.870905536882766  6.907611884474491  2.062758252438177  55.64845324898573  16.346957443263165  8.093209490569478  46.86828580791252  49.60402179971006  -48.300045753119356  35.93461579621934  120.000000
5.510902255639097  0.000000  0.000000  0.000000  -18.744049140531658  7.055721015770911  2.7810775187412844  55.812944182649076  15.776507192026061  7.917837018079277  47.76401863342008  50.3453393549677  -47.782294876841476  34.91847807653028  120.000000
5.5511278195488725  0.000000  0.000000  0.000000  -18.631848888528186  7.192133639443563  3.4973536988796967  55.9624626640213  15.193959487175457  7.717640895316112  48.532925261276006  51.0194297030179  -47.324611327254914  34.08635158110318  120.000000
5.591353383458647  0.000000  0.000000  0.000000  -18.534634376976165  7.315514854576889  4.2004989200780445  56.0907316729734  14.607151200976952  7.493194487435925  49.155009259961034  51.61535507809321  -46.937988883801516  33.48846404979942  120.000000
5.631578947368421  0.000000  0.000000  0.000000  -18.452822813256518  7.4253567528571205  4.879546498502125  56.1923745918275  14.025083490960748  7.246402453557009  49.614510173801335  52.12574421454365  -46.63064873645708  33.16632928376359  120.000000
5.671804511278196  0.000000  0.000000  0.000000  -18.386160572221165  7.521942850615251  5.52475104837998  56.26388539614096  13.457883983858173  6.981285708273026  49.901824187569034  52.54746330757283  -46.40725655872622  33.14637504027646  120.000000
5.71203007518797  0.000000  0.000000  0.000000  -18.3335648052283  7.606018671616646  6.128265758372415  56.30427361830126  12.916596178300733  6.704135855104355  50.014800928144446  52.881605910472366  -46.26906049397531  33.437777848206046  120.000000
5.752255639097744  0.000000  0.000000  0.000000  -18.293789293972438  7.678624516594741  6.684429549943066  56.31495049605141  12.412390751724484  6.422861496549947  49.958494864279395  53.13287096297104  -46.214716088704385  34.03599529121874  120.000000
5.792481203007519  0.000000  0.000000  0.000000  -18.266176499474163  7.741046581356224  7.189696880413921  56.29905836176966  11.955736220628904  6.146039578307966  49.74379802823148  53.30861120826887  -46.24139730780894  34.92851274175211  120.000000
5.832706766917293  0.000000  0.000000  0.000000  -18.251112048804437  7.794805076338562  7.642473299368584  56.260761272684746  11.555907211408465  5.88218593779464  49.3857465427127  53.41786660955504  -46.3457635385547  36.09946599158599  120.000000
5.872932330827068  0.000000  0.000000  0.000000  -18.25008487266174  7.841605732856787  8.043093565736314  56.204681377102425  11.220695500996184  5.639266553880827  48.90194265416819  53.47059864107553  -46.52462244709833  37.53246374307828  120.000000
5.913157894736842  0.000000  0.000000  0.000000  -18.265479109845206  7.883256691664714  8.393881871359852  56.13557577766772  10.956312453938928  5.424413470865068  48.31133961822874  53.47715940983362  -46.77521735670816  39.21184349278679  120.000000
5.953383458646616  0.000000  0.000000  0.000000  -18.30028828659048  7.921604035223184  8.699223342971653  56.05817687578323  10.767415104059749  5.243873788168866  47.63352264026154  53.44791832679437  -47.09522930178017  41.12284963681145  120.000000
5.993609022556391  0.000000  0.000000  0.000000  -18.3577927756158  7.958470332661408  8.965642701880398  55.97711682294782  10.657142332101111  5.103040875293756  46.88829159102365  53.39298719512908  -47.48250494407969  43.251319952123  120.000000
6.033834586466165  0.000000  0.000000  0.000000  -18.44129463744319  7.995518115412405  9.20179295196698  55.89689624675256  10.627148361531685  5.006446853431667  46.09542126008249  53.32192621355669  -47.93466883228742  45.58341057576949  120.000000
6.0740601503759395  0.000000  0.000000  0.000000  -18.553739678774683  8.03405577528583  9.418268264336273  55.8217727530266  10.677496815778749  4.957669152908458  45.27433650371579  53.24337903854861  -48.44857393394313  48.105436153460516  120.000000
6.114285714285714  0.000000  0.000000  0.000000  -18.697163464533926  8.074970716447258  9.627081332432574  55.75538144435309  10.806496324377413  4.9592653161190645  44.443438457445076  53.16456499567352  -49.01981523084725  50.8034971132868  120.000000
6.154511278195488  0.000000  0.000000  0.000000  -18.87255476764882  8.118652882705398  9.840768855581834  55.70022221625487  11.010552695513022  5.012561455270074  43.61913743989598  53.0910030125783  -49.6424983477916  53.66270735916436  120.000000
6.194736842105263  0.000000  0.000000  0.000000  -19.079833349101797  8.165273451592503  10.071188945736694  55.657170888401964  11.28371009250918  5.117511097807061  42.814806499647815  53.026578218735736  -50.309180543839375  56.666243811978916  120.000000
6.234962406015037  0.000000  0.000000  0.000000  -19.317549145568748  8.215189178514322  10.328333169807085  55.62525524675262  11.617135603439996  5.272877120887325  42.04038509844879  52.97356881472048  -51.010978663522074  59.79457995431461  120.000000
6.275187969924812  0.000000  0.000000  0.000000  -19.582906217684354  8.268712951557678  10.619511463015959  55.60202406796139  11.999368147579444  5.476347521255811  41.302728017333294  52.932553666102734  -51.73778864144693  63.025510845303  120.000000
6.315413533834587  0.000000  0.000000  0.000000  -19.872127543987105  8.325870279959462  10.948969204730128  55.58409808690632  12.417309346466789  5.724658165430034  40.606022663381495  52.90250568608466  -52.478690100614685  66.33429073177003  120.000000
6.355639097744361  0.000000  0.000000  0.000000  -20.18092592195017  8.386404263189128  11.317992049496237  55.56777779049999  12.857405000578598  6.013979414125079  39.951987106329575  52.88107688807012  -53.22224076952301  69.69358236234712  120.000000
6.3958646616541355  0.000000  0.000000  0.000000  -20.50500043247853  8.449731369845654  11.725167039188946  55.54978147917173  13.306657858083437  6.340189229234414  39.34033527200183  52.86486001958903  -53.95663828944719  73.07514633524545  120.000000
6.43609022556391  0.000000  0.000000  0.000000  -20.840464015398652  8.514768797405512  12.166727734103162  55.52809160742382  13.753467518690867  6.698762402015281  38.76983393925802  52.849859761621516  -54.670144141760744  76.45146683906279  120.000000
6.476315789473684  0.000000  0.000000  0.000000  -21.183890334934038  8.579903337614983  12.63700354573024  55.50232531052625  14.188103715074046  7.084755267775803  38.239226924431556  52.83202393912394  -55.35167403633661  79.79534992236691  120.000000
6.516541353383459  0.000000  0.000000  0.000000  -21.532023079793444  8.643206443659206  13.128796932038645  55.47357094024366  14.602707100310269  7.492734455900903  37.74751078194383  52.807453805115365  -55.991385126983744  83.07947321055799  120.000000
6.556766917293233  0.000000  0.000000  0.000000  -21.88156729426551  8.702610737240617  13.633602119713887  55.444155112131284  14.991205463727166  7.916542048337386  37.293990813094034  52.77249866346725  -56.581091651169565  86.27623414678445  120.000000
6.596992481203007  0.000000  0.000000  0.000000  -22.229058562249094  8.756188597666753  14.1416705498404  55.417220459421145  15.349344021912973  8.349299981176504  36.878226114848964  52.723905151190685  -57.114433931326346  89.35742146237429  120.000000
6.637218045112782  0.000000  0.000000  0.000000  -22.570812096564563  8.802484073380885  14.642318818726451  55.39620744675208  15.674634155682787  8.783516767219723  36.49985808796476  52.659053251028  -57.586936978364655  92.2942271542203  120.000000
6.677443609022556  0.000000  0.000000  0.000000  -22.902851995810185  8.840709834388662  15.124511870789332  55.38439518609528  15.96616575137909  9.211332637010882  36.15855346589465  52.57617442252114  -57.99615772391835  95.05821848593025  120.000000
6.717669172932331  0.000000  0.000000  0.000000  -23.220930341561207  8.870706730766056  15.577621880745339  55.38449436704805  16.22445583644519  9.62493632207719  35.85415711082663  52.47443880909341  -58.34191930860435  97.62351588512347  120.000000
6.757894736842105  0.000000  0.000000  0.000000  -23.520866438188968  8.892741172436931  15.992401464563569  55.39828943010527  16.45126714201552  10.017019215462867  35.58681455207709  52.35403918767734  -58.62639624826133  99.96952171423602  120.000000
6.798120300751879  0.000000  0.000000  0.000000  -23.7990029198375  8.907316749531244  16.361931170076627  55.426307279828265  16.64931177427  10.381245589723557  35.35691687975671  52.216347545673756  -58.854001044018005  102.08302143184125  120.000000
6.838345864661654  0.000000  0.000000  0.000000  -24.052564422424265  8.914969466870032  16.682247741299246  55.46768434692685  16.821851868588034  10.712630535394458  35.165005238422744  52.06401334593667  -59.03111171257518  103.9589695450014  120.000000
6.878571428571428  0.000000  0.000000  0.000000  -24.27974510339409  8.916151175224579  16.952434613023144  55.5203177387358  16.972215619932584  11.007724884355278  35.01168933766134  51.9008418621434  -59.165652079226746  105.5998056130773  120.000000
6.9187969924812025  0.000000  0.000000  0.000000  -24.479534147379027  8.911305417139264  17.174165582157933  55.58123699855246  17.103358103388143  11.264601134176752  34.89754997852659  51.73145893636989  -59.26652551720301  107.01325179693175  120.000000
6.959022556390977  0.000000  0.000000  0.000000  -24.651629468638063  8.900963030332415  17.350917906132725  55.64718841627869  17.217586023059713  11.482665370356123  34.82305716692178  51.560900908787396  -59.342993087422336  108.20939395419975  120.000000
6.999248120300752  0.000000  0.000000  0.000000  -24.79640830426389  8.885833508272214  17.48710935081343  55.71509071621252  17.316426005513957  11.66239493092545  34.78853903486166  51.39420464289038  -59.40414995413036  109.19850146303709  120.000000
7.0394736842105265  0.000000  0.000000  0.000000  -24.914771974813604  8.866880875500813  17.587428071972855  55.78224736185374  17.400714396098984  11.805088598841857  34.79407568119152  51.23598780089  -59.45858152203398  109.99015321463362  120.000000
